# xmcd
#
# Track frame offsets:
#	150
#	16330
#	33278
#	47655
#	65063
#	84504
#	104132
#	116072
#	133811
#	149663
#	163736
#	179685
#	191306
#	207630
#	220845
#	236300
#	250625
#	264032
#	283340
#
# Disc length: 4026 seconds
#
# Revision: 1
# Processed by: cddbd v1.5.2PL0 Copyright (c) Steve Scherf et al.
# Submitted via: audiograbber 1.83.01
#
DISCID=230fb813
DTITLE=Kenny Rogers - Country Standards
DYEAR=2003
DGENRE=Country
TTITLE0=Green Green Grass Of Home
TTITLE1=Desperado
TTITLE2=You Needed Me (with Dottie West)
TTITLE3=Lay Down Beside Me
TTITLE4=Sweet Music Man
TTITLE5=Coward Of The County
TTITLE6=Blaze Of Glory
TTITLE7=Something's Burning
TTITLE8=The Gambler
TTITLE9=The Son Of Hickory Holler's Tramp
TTITLE10=Just The Way You Are (with Dottie West)
TTITLE11=Baby I'm A Want You (with Dottie West)
TTITLE12=Love Wil Turn You Around
TTITLE13=Together Again (with Dottie West)
TTITLE14=Let It Be Me (with Dottie West)
TTITLE15=Another Somebody Done Somebody Wrong Song
TTITLE16=Puttin' In Overtime At Home
TTITLE17=Abraham, Martin and John
TTITLE18=You've Lost That Loving Feeling (with Dottie West)
EXTD=This disk is copy protected with rootkit!
EXTT0=
EXTT1=
EXTT2=
EXTT3=
EXTT4=
EXTT5=
EXTT6=
EXTT7=
EXTT8=
EXTT9=
EXTT10=
EXTT11=
EXTT12=
EXTT13=
EXTT14=
EXTT15=
EXTT16=
EXTT17=
EXTT18=
PLAYORDER=
